<?xml version="1.0" encoding="utf-8"?>
<!-- Generator: Adobe Illustrator 16.0.0, SVG Export Plug-In . SVG Version: 6.00 Build 0)  -->
<!DOCTYPE svg PUBLIC "-//W3C//DTD SVG 1.1//EN" "http://www.w3.org/Graphics/SVG/1.1/DTD/svg11.dtd">
<svg version="1.1" id="Layer_1" xmlns="http://www.w3.org/2000/svg" xmlns:xlink="http://www.w3.org/1999/xlink" x="0px" y="0px"
	 width="39.604px" height="39.526px" viewBox="30.966 15.671 39.604 39.526" enable-background="new 30.966 15.671 39.604 39.526"
	 xml:space="preserve">
<path d="M66.846,17.09c-1.893-1.893-5.104-1.893-6.996,0L34.994,41.946c0,0,0,0,0,0.083c-0.082,0.083-0.165,0.247-0.247,0.412
	c0,0,0,0.082-0.083,0.082v0.083l-3.622,10.453c-0.165,0.576-0.082,1.234,0.412,1.646c0.33,0.33,0.741,0.494,1.152,0.494
	c0.165,0,0.329,0,0.494-0.082l10.453-3.457c0,0,0,0,0.082,0c0,0,0.083,0,0.083-0.082c0.165-0.082,0.329-0.164,0.411-0.247
	c0,0,0,0,0.083,0L69.15,26.391c1.893-1.893,1.893-5.021,0-6.996L66.846,17.09z M43.142,47.79l-2.305-2.305l-2.387-2.387
	l18.683-18.683l4.691,4.691L43.142,47.79z M36.805,46.144l1.646,1.646l1.646,1.646l-4.856,1.646L36.805,46.144z M66.846,24.004
	l-2.717,2.716l-4.69-4.691l2.716-2.716c0.658-0.659,1.729-0.659,2.305,0l2.305,2.304C67.504,22.358,67.504,23.428,66.846,24.004z"/>
</svg>
